<svg width="50" height="50" viewBox="0 0 50 50" fill="none" xmlns="http://www.w3.org/2000/svg">
<rect x="0.5" y="0.5" width="49" height="49" rx="7.5" stroke="#272A33"/>
<path d="M17.2898 32.424C16.9034 32.037 16.9034 31.4094 17.2898 31.0223L31.2819 17.0047C31.6683 16.6176 32.2948 16.6176 32.6812 17.0047C33.0675 17.3918 33.0675 18.0193 32.6812 18.4064L18.689 32.424C18.3026 32.8111 17.6762 32.8111 17.2898 32.424Z" fill="#272A33"/>
<path d="M32.7102 32.424C33.0966 32.037 33.0966 31.4094 32.7102 31.0223L18.7181 17.0047C18.3317 16.6176 17.7052 16.6176 17.3188 17.0047C16.9325 17.3918 16.9325 18.0193 17.3188 18.4064L31.311 32.424C31.6974 32.8111 32.3238 32.8111 32.7102 32.424Z" fill="#272A33"/>
</svg>
